<svg width="1024" height="1024" viewBox="0 0 1024 1024" fill="none" xmlns="http://www.w3.org/2000/svg">
<rect width="1024" height="1024" rx="64" fill="url(#paint0_linear_101_10806)"/>
<path d="M369.255 254.35C369.662 254.555 370.054 254.901 370.476 254.941C374.054 255.257 377.647 255.409 381.211 255.823C384.945 256.258 388.657 256.924 392.372 257.515C394.845 257.907 397.322 258.307 399.785 258.771C402.017 259.192 404.235 259.675 406.449 260.182C408.825 260.726 411.194 261.298 413.548 261.914C415.554 262.436 417.544 263.03 419.539 263.603C422.109 264.341 424.705 265.007 427.236 265.856C431.715 267.361 436.175 268.92 440.6 270.576C444.056 271.872 447.52 273.197 450.85 274.778C458.201 278.266 465.589 281.704 472.735 285.582C479.082 289.023 485.213 292.897 491.276 296.832C495.186 299.37 498.869 302.276 502.519 305.181C507.484 309.138 512.323 313.253 517.215 317.299C519.667 319.326 519.696 320.003 517.37 322.048C509.291 329.151 502.084 337.086 495.099 345.244C488.432 353.027 482.333 361.247 476.839 369.883C472.602 376.54 468.771 383.456 464.782 390.271C464.026 391.56 463.425 391.686 462.262 390.638C457.82 386.624 453.514 382.441 448.884 378.657C445.05 375.525 440.949 372.674 436.755 370.038C431.848 366.956 426.819 364.033 421.645 361.434C416.803 359 411.773 356.905 406.704 354.975C402.19 353.258 397.556 351.796 392.887 350.547C388.919 349.485 384.83 348.876 380.79 348.084C378.753 347.685 376.718 347.231 374.663 346.95C371.765 346.558 368.852 346.212 365.936 346.014C360.734 345.661 355.524 345.165 350.322 345.219C344.76 345.28 339.158 345.593 333.653 346.374C327.594 347.231 321.578 348.56 315.631 350.028C309.791 351.472 303.919 352.977 298.325 355.144C291.995 357.592 285.875 360.635 279.83 363.742C275.157 366.143 270.614 368.85 266.24 371.763C258.499 376.918 251.331 382.797 244.711 389.368C237.327 396.698 230.375 404.37 224.78 413.168C221.317 418.615 217.781 424.052 214.793 429.762C211.193 436.642 208.111 443.799 205.796 451.24C204.335 455.942 202.776 460.637 201.696 465.432C200.63 470.177 200.043 475.037 199.37 479.862C198.754 484.297 198.042 488.743 197.847 493.204C197.628 498.273 197.926 503.364 198.02 508.444C198.031 508.98 198.196 509.509 198.243 510.046C198.639 514.575 198.902 519.118 199.453 523.629C199.791 526.394 200.54 529.112 201.138 531.845C201.519 533.587 201.941 535.322 202.38 537.051C203.121 539.977 203.759 542.94 204.673 545.813C205.994 549.961 207.355 554.108 208.993 558.133C212.251 566.122 216.064 573.837 220.611 581.2C226.267 590.355 232.733 598.869 240.131 606.678C247.99 614.976 256.512 622.53 266.121 628.74C271.892 632.47 277.847 635.947 283.891 639.216C287.614 641.229 291.632 642.709 295.57 644.296C299.16 645.74 302.767 647.18 306.465 648.303C310.778 649.61 315.173 650.687 319.58 651.644C324.289 652.663 329.038 653.509 333.797 654.265C336.27 654.658 338.798 654.733 341.307 654.877C349.757 655.36 358.203 655.622 366.642 654.593C370.076 654.175 373.561 654.089 376.97 653.549C380.848 652.933 384.686 652.047 388.509 651.151C391.807 650.377 395.097 649.538 398.323 648.512C401.837 647.396 405.279 646.046 408.738 644.764C410.866 643.976 412.958 643.094 415.089 642.32C416.277 641.888 416.803 641.081 416.806 639.872C416.806 638.493 416.785 637.114 416.785 635.731C416.785 576.39 416.824 517.048 416.734 457.71C416.724 450.725 418.056 444.216 421.134 437.97C426.404 427.288 434.606 419.768 445.511 415.177C452.733 412.139 460.271 411.329 468.087 411.998C476.101 412.686 483.385 415.343 489.811 419.962C493.22 422.414 496 425.773 498.959 428.822C504.255 434.283 509.471 439.821 514.717 445.329C521.701 452.659 528.657 460.021 535.677 467.319C539.832 471.639 544.138 475.815 548.289 480.139C551.565 483.548 554.672 487.123 557.933 490.551C561.112 493.892 564.479 497.063 567.611 500.448C571.121 504.246 570.991 503.148 573.868 500.404C585.493 489.309 597.021 478.108 608.631 466.998C616.512 459.459 624.353 451.874 632.446 444.573C637.011 440.454 642.502 437.794 648.471 436.037C653.482 434.561 658.537 434.013 663.703 434.168C671.577 434.402 678.791 436.699 685.52 440.847C691.165 444.324 695.968 448.634 699.791 453.998C703.463 459.153 706.182 464.741 707.409 471.056C708.432 476.323 708.738 481.601 708.738 486.929C708.738 563.13 708.748 639.332 708.716 715.533C708.716 720.202 708.68 724.908 708.14 729.538C707.427 735.665 705.447 741.548 701.98 746.646C699.208 750.721 696.069 754.717 692.411 757.983C688.429 761.536 683.882 764.513 678.737 766.472C672.592 768.812 666.277 769.583 659.768 769.579C635.647 769.561 611.529 769.608 587.408 769.633C584.65 769.633 581.889 769.669 579.131 769.644C578.091 769.633 577.054 769.489 576.014 769.406C575.996 769.248 575.981 769.089 575.963 768.927C576.824 768.585 577.659 768.121 578.552 767.926C586.929 766.09 593.989 761.817 600.009 755.891C605.866 750.124 609.852 743.19 612.242 735.248C614.305 728.393 614.91 721.477 614.892 714.359C614.787 675.96 614.841 637.557 614.841 599.157C614.841 596.219 614.849 593.278 614.777 590.34C614.762 589.811 614.377 589.293 614.165 588.771C613.646 588.998 613.013 589.098 612.631 589.466C606.583 595.28 600.588 601.152 594.533 606.962C586.49 614.681 578.404 622.353 570.347 630.05C569.047 631.292 567.791 632.581 566.495 633.831C565.001 635.271 564.525 635.292 563.085 633.802C559.132 629.701 555.223 625.557 551.277 621.45C543.306 613.148 535.324 604.856 527.339 596.565C522.396 591.431 517.453 586.294 512.47 581.196C512.028 580.742 511.29 580.58 510.688 580.285C510.465 580.915 510.044 581.542 510.044 582.172C510.008 611.812 510.058 641.452 509.954 671.092C509.939 675.593 508.395 679.898 506.811 684.093C504.896 689.169 502.17 693.792 498.437 697.77C494.387 702.086 489.71 705.607 484.544 708.487C480.105 710.964 475.741 713.589 471.216 715.897C464.61 719.263 457.913 722.463 451.203 725.621C447.692 727.273 444.114 728.803 440.481 730.179C436.085 731.842 431.628 733.35 427.157 734.79C423.139 736.083 419.082 737.26 415.006 738.358C411.957 739.183 408.857 739.831 405.768 740.5C403.547 740.979 401.311 741.408 399.068 741.778C394.773 742.488 390.471 743.154 386.169 743.816C382.165 744.428 378.158 745.047 374.144 745.584C372.845 745.757 371.513 745.713 370.195 745.713C357.9 745.724 345.606 745.847 333.315 745.656C329.344 745.595 325.387 744.698 321.423 744.172C320.71 744.079 320.001 743.946 319.296 743.82C313.557 742.797 307.811 741.8 302.076 740.741C298.613 740.101 295.146 739.467 291.729 738.628C288.672 737.879 285.691 736.835 282.667 735.95C280.259 735.244 277.775 734.751 275.438 733.865C268.58 731.277 261.747 728.623 254.968 725.833C250.327 723.925 245.751 721.841 241.233 719.655C238.169 718.176 235.228 716.429 232.276 714.727C228.701 712.667 225.079 710.673 221.648 708.387C216.176 704.736 210.729 701.024 205.487 697.057C199.856 692.798 194.308 688.395 189.009 683.733C179.274 675.164 170.255 665.854 162.195 655.687C157.698 650.017 153.446 644.138 149.346 638.176C145.454 632.517 141.746 626.717 138.25 620.805C135.758 616.593 133.649 612.143 131.564 607.708C129.253 602.786 127.06 597.8 125.008 592.763C123.28 588.519 121.804 584.17 120.26 579.857C118.956 576.22 117.545 572.613 116.487 568.905C115.216 564.444 114.229 559.901 113.189 555.379C112.346 551.725 111.515 548.064 110.842 544.373C110.215 540.924 109.769 537.439 109.312 533.962C108.689 529.22 108.12 524.472 107.544 519.727C107.429 518.776 107.306 517.818 107.303 516.864C107.285 505.945 107.083 495.022 107.378 484.114C107.529 478.587 108.573 473.086 109.243 467.574C109.596 464.683 109.945 461.785 110.42 458.912C110.86 456.266 111.475 453.649 112.004 451.017C112.418 448.965 112.768 446.902 113.236 444.864C113.765 442.557 114.388 440.267 114.989 437.977C115.745 435.104 116.479 432.224 117.297 429.366C117.966 427.029 118.69 424.703 119.482 422.406C120.63 419.087 121.729 415.739 123.097 412.506C126.218 405.129 129.293 397.716 132.77 390.505C135.676 384.479 138.891 378.571 142.397 372.875C145.994 367.028 149.958 361.391 154.037 355.864C158.443 349.892 162.893 343.908 167.829 338.382C173.73 331.779 180.066 325.558 186.395 319.351C194.888 311.024 204.45 303.982 214.116 297.113C218.789 293.794 223.732 290.802 228.751 288.019C236.009 283.998 243.339 280.07 250.842 276.534C256.94 273.665 263.302 271.336 269.613 268.949C274.239 267.199 278.948 265.644 283.675 264.193C286.79 263.239 290.015 262.652 293.176 261.846C296.737 260.938 300.269 259.912 303.84 259.052C305.809 258.577 307.825 258.285 309.831 257.997C312.851 257.565 315.883 257.191 318.91 256.834C324.303 256.197 329.7 255.599 335.09 254.948C335.45 254.905 335.774 254.559 336.116 254.357C347.157 254.357 358.195 254.357 369.237 254.357L369.255 254.35Z" fill="#2C2A29"/>
<path d="M750.19 680.391C750.19 666.714 750.265 653.034 750.121 639.36C750.096 636.836 751.237 635.785 753.171 634.709C758.546 631.713 763.971 628.776 769.091 625.381C773.76 622.284 778.167 618.76 782.472 615.163C785.727 612.445 788.78 609.453 791.664 606.343C795.239 602.487 798.799 598.57 801.913 594.344C805.64 589.289 809.146 584.033 812.267 578.589C815.115 573.621 817.535 568.372 819.741 563.08C821.686 558.421 823.252 553.579 824.674 548.726C826.146 543.7 827.356 538.588 828.461 533.464C829.041 530.786 829.368 528.01 829.43 525.274C829.602 517.501 830.924 509.764 829.656 501.941C828.94 497.527 829.008 492.988 828.576 488.52C828.396 486.637 827.835 484.794 827.457 482.929C825.466 473.129 822.42 463.632 818.348 454.534C813.546 443.798 807.605 433.646 800.203 424.473C794.252 417.099 787.826 410.108 780.28 404.294C774.833 400.096 769.422 395.794 763.625 392.129C758.499 388.888 752.965 386.217 747.41 383.751C742.078 381.382 736.574 379.305 730.983 377.638C725.813 376.097 720.438 375.244 715.142 374.139C712.996 373.692 710.793 373.491 708.662 372.994C701.663 371.366 694.56 372.09 687.507 372.108C682.078 372.122 676.598 372.407 671.234 373.188C665.708 373.991 660.268 375.453 654.835 376.799C651.123 377.717 647.394 378.693 643.84 380.075C638.843 382.019 633.922 384.205 629.116 386.581C624.885 388.669 620.713 390.948 616.771 393.533C612.126 396.578 607.558 399.808 603.32 403.39C598.341 407.602 593.611 412.138 589.049 416.804C586.133 419.789 583.534 423.13 581.111 426.539C577.262 431.947 573.644 437.52 570.008 443.071C568.993 444.619 568.276 443.813 567.491 443.006C563.654 439.057 559.834 435.097 556.014 431.133C550.563 425.481 545.095 419.846 539.683 414.158C536.67 410.994 533.804 407.689 530.784 404.535C527.306 400.902 523.728 397.367 520.192 393.788C518.633 392.211 517.006 390.696 515.562 389.022C515.209 388.611 515.156 387.477 515.469 387.024C517.672 383.823 519.825 380.554 522.341 377.602C528.282 370.621 534.139 363.54 540.548 357.005C546.239 351.202 552.529 345.964 558.746 340.704C563.081 337.035 567.614 333.561 572.298 330.346C576.927 327.167 581.795 324.319 586.673 321.526C591.602 318.707 596.602 315.996 601.697 313.494C605.822 311.467 610.117 309.778 614.373 308.021C617.347 306.794 620.364 305.667 623.391 304.579C626.012 303.636 628.662 302.761 631.326 301.941C634.336 301.012 637.349 300.058 640.409 299.33C645.507 298.117 650.641 297.034 655.775 295.982C658.867 295.349 661.985 294.819 665.11 294.344C667.943 293.912 670.791 293.473 673.646 293.279C681.361 292.76 689.091 291.939 696.806 292.047C705.234 292.166 713.659 293.084 722.065 293.869C727.469 294.373 732.855 295.143 738.208 296.036C741.902 296.652 745.538 297.649 749.182 298.546C752.116 299.266 755.053 300.004 757.941 300.897C761.854 302.103 765.735 303.431 769.605 304.767C773.166 305.994 776.755 307.168 780.229 308.604C784.319 310.297 788.366 312.118 792.312 314.12C797.914 316.964 803.515 319.841 808.923 323.03C817.387 328.017 825.34 333.763 833.073 339.832C843.679 348.156 853.396 357.401 862.123 367.64C867.476 373.919 872.391 380.579 877.355 387.178C883.198 394.948 887.817 403.484 892.335 412.052C894.65 416.437 896.681 420.991 898.589 425.571C901.001 431.349 903.294 437.188 905.379 443.093C906.743 446.956 907.672 450.977 908.749 454.941C909.699 458.444 910.617 461.958 911.478 465.482C911.888 467.164 912.18 468.877 912.428 470.591C913.209 476.031 914.066 481.467 914.664 486.929C915.254 492.336 915.809 497.769 915.942 503.201C916.115 510.204 915.855 517.217 915.769 524.226C915.751 525.605 915.758 526.991 915.611 528.356C915.085 533.284 914.523 538.213 913.922 543.135C913.58 545.925 913.195 548.708 912.72 551.476C912.227 554.349 911.654 557.215 911.017 560.059C910.326 563.141 909.588 566.212 908.745 569.254C907.859 572.451 906.848 575.615 905.858 578.784C904.969 581.624 904.223 584.526 903.086 587.266C899.903 594.938 896.76 602.635 893.21 610.137C889.142 618.738 884.206 626.868 878.914 634.795C871.868 645.351 863.988 655.237 855.138 664.284C848.95 670.613 842.25 676.46 835.55 682.256C828.475 688.377 820.951 693.96 812.847 698.651C805.398 702.965 797.838 707.101 790.144 710.957C784.712 713.679 779.052 716.008 773.353 718.128C767.722 720.224 761.912 721.833 756.18 723.662C755.215 723.972 754.283 724.418 753.3 724.648C750.913 725.203 750.377 724.753 750.377 722.33C750.377 715.968 750.377 709.61 750.377 703.249C750.377 695.627 750.377 688.009 750.377 680.388C750.316 680.388 750.254 680.388 750.193 680.388L750.19 680.391Z" fill="#2C2A29"/>
<defs>
<linearGradient id="paint0_linear_101_10806" x1="1024" y1="0" x2="0" y2="1024" gradientUnits="userSpaceOnUse">
<stop stop-color="#FFA21A"/>
<stop offset="1" stop-color="#FFD400"/>
</linearGradient>
</defs>
</svg>
