<svg width="32" height="32" viewBox="0 0 32 32" fill="none" xmlns="http://www.w3.org/2000/svg">
<rect width="32" height="32" rx="8" fill="#3D3D3D" fill-opacity="0.8"/>
<path d="M16.0003 7.6665C11.4087 7.6665 7.66699 11.4082 7.66699 15.9998C7.66699 20.5915 11.4087 24.3332 16.0003 24.3332C20.592 24.3332 24.3337 20.5915 24.3337 15.9998C24.3337 11.4082 20.592 7.6665 16.0003 7.6665ZM18.8003 17.9165C19.042 18.1582 19.042 18.5582 18.8003 18.7998C18.6753 18.9248 18.517 18.9832 18.3587 18.9832C18.2003 18.9832 18.042 18.9248 17.917 18.7998L16.0003 16.8832L14.0837 18.7998C13.9587 18.9248 13.8003 18.9832 13.642 18.9832C13.4837 18.9832 13.3253 18.9248 13.2003 18.7998C12.9587 18.5582 12.9587 18.1582 13.2003 17.9165L15.117 15.9998L13.2003 14.0832C12.9587 13.8415 12.9587 13.4415 13.2003 13.1998C13.442 12.9582 13.842 12.9582 14.0837 13.1998L16.0003 15.1165L17.917 13.1998C18.1587 12.9582 18.5587 12.9582 18.8003 13.1998C19.042 13.4415 19.042 13.8415 18.8003 14.0832L16.8837 15.9998L18.8003 17.9165Z" fill="#FFA21A"/>
</svg>
