<svg width="57" height="36" viewBox="0 0 57 36" fill="none" xmlns="http://www.w3.org/2000/svg">
<path d="M18.3064 0C18.3348 0.0143364 18.3622 0.0384818 18.3916 0.0412485C18.6416 0.0633818 18.8926 0.0739455 19.1416 0.10287C19.4025 0.133303 19.6618 0.179833 19.9213 0.221082C20.0941 0.248497 20.2672 0.276415 20.4392 0.308861C20.5951 0.338288 20.7501 0.371991 20.9048 0.407455C21.0708 0.445433 21.2363 0.485424 21.4007 0.528433C21.5408 0.564903 21.6799 0.606403 21.8193 0.646394C21.9988 0.697955 22.1802 0.744485 22.357 0.803843C22.6699 0.908976 22.9815 1.01788 23.2906 1.13358C23.5321 1.22412 23.774 1.31668 24.0067 1.4271C24.5203 1.67082 25.0364 1.91101 25.5357 2.18189C25.9791 2.42234 26.4074 2.69297 26.831 2.96788C27.1041 3.1452 27.3614 3.34817 27.6164 3.55114C27.9633 3.82756 28.3013 4.11504 28.6431 4.39774C28.8144 4.53935 28.8164 4.58663 28.6539 4.72949C28.0895 5.22573 27.586 5.78007 27.0981 6.35C26.6323 6.89378 26.2062 7.46799 25.8224 8.07137C25.5264 8.53643 25.2587 9.01959 24.9801 9.49571C24.9272 9.58575 24.8852 9.59455 24.804 9.52136C24.4936 9.24092 24.1928 8.94866 23.8694 8.68432C23.6015 8.4655 23.315 8.2663 23.022 8.08219C22.6792 7.86689 22.3278 7.66266 21.9664 7.48107C21.6281 7.31104 21.2768 7.16466 20.9226 7.02985C20.6072 6.90988 20.2835 6.80776 19.9573 6.72049C19.6801 6.64629 19.3944 6.60378 19.1122 6.54845C18.9699 6.52053 18.8277 6.48884 18.6841 6.46922C18.4817 6.44181 18.2782 6.41766 18.0745 6.40383C17.711 6.37918 17.3471 6.34447 16.9836 6.34824C16.595 6.35252 16.2037 6.3744 15.8191 6.42898C15.3958 6.48884 14.9755 6.58165 14.56 6.68427C14.1521 6.78513 13.7419 6.89026 13.351 7.04167C12.9088 7.2127 12.4813 7.42523 12.059 7.64229C11.7325 7.81005 11.4151 7.99919 11.1095 8.20267C10.5687 8.56284 10.068 8.97356 9.60544 9.43258C9.08958 9.94466 8.60391 10.4806 8.21305 11.0953C7.97109 11.4759 7.72411 11.8557 7.51535 12.2546C7.26383 12.7352 7.04854 13.2352 6.88681 13.7551C6.7847 14.0836 6.67579 14.4116 6.60034 14.7466C6.52589 15.0781 6.48489 15.4176 6.43786 15.7547C6.39485 16.0645 6.34505 16.3751 6.33147 16.6868C6.31612 17.0409 6.337 17.3966 6.34354 17.7514C6.34429 17.7889 6.35586 17.8259 6.35913 17.8634C6.3868 18.1798 6.40516 18.4972 6.44364 18.8123C6.46728 19.0055 6.5196 19.1954 6.56135 19.3863C6.58801 19.508 6.61744 19.6293 6.64812 19.75C6.69994 19.9545 6.74445 20.1615 6.80834 20.3622C6.90065 20.6519 6.99572 20.9417 7.11016 21.2229C7.33778 21.781 7.60413 22.32 7.9218 22.8343C8.31693 23.4739 8.76865 24.0687 9.28551 24.6143C9.83457 25.194 10.4299 25.7217 11.1012 26.1556C11.5044 26.4161 11.9204 26.6591 12.3427 26.8875C12.6027 27.0281 12.8834 27.1314 13.1586 27.2424C13.4094 27.3432 13.6614 27.4438 13.9197 27.5223C14.221 27.6136 14.5281 27.6888 14.8359 27.7557C15.1649 27.8269 15.4967 27.886 15.8292 27.9388C16.002 27.9662 16.1785 27.9715 16.3538 27.9816C16.9441 28.0153 17.5342 28.0336 18.1238 27.9617C18.3637 27.9325 18.6072 27.9265 18.8454 27.8888C19.1162 27.8458 19.3844 27.7839 19.6515 27.7213C19.8818 27.6672 20.1117 27.6086 20.3371 27.5369C20.5826 27.4589 20.823 27.3646 21.0647 27.2751C21.2134 27.22 21.3595 27.1584 21.5084 27.1043C21.5914 27.0741 21.6281 27.0178 21.6284 26.9333C21.6284 26.8369 21.6269 26.7406 21.6269 26.644C21.6269 22.4983 21.6296 18.3526 21.6233 14.2071C21.6226 13.7191 21.7156 13.2644 21.9307 12.828C22.2989 12.0818 22.8719 11.5564 23.6337 11.2357C24.1382 11.0234 24.6649 10.9668 25.211 11.0136C25.7708 11.0616 26.2796 11.2473 26.7286 11.57C26.9668 11.7412 27.1609 11.9759 27.3677 12.1889C27.7377 12.5705 28.1021 12.9573 28.4686 13.3421C28.9565 13.8542 29.4424 14.3686 29.9329 14.8784C30.2231 15.1802 30.524 15.472 30.814 15.774C31.0428 16.0122 31.2599 16.262 31.4878 16.5014C31.7099 16.7348 31.945 16.9564 32.1638 17.1928C32.4091 17.4582 32.4 17.3815 32.601 17.1898C33.4131 16.4146 34.2185 15.6322 35.0296 14.856C35.5802 14.3293 36.128 13.7994 36.6934 13.2893C37.0123 13.0016 37.3959 12.8157 37.8129 12.693C38.163 12.5898 38.5161 12.5516 38.877 12.5624C39.4271 12.5788 39.9311 12.7392 40.4012 13.029C40.7956 13.272 41.1311 13.573 41.3982 13.9478C41.6548 14.3079 41.8447 14.6983 41.9304 15.1395C42.0019 15.5074 42.0232 15.8761 42.0232 16.2484C42.0232 21.572 42.024 26.8955 42.0217 32.2191C42.0217 32.5453 42.0192 32.874 41.9815 33.1975C41.9317 33.6256 41.7933 34.0365 41.5511 34.3927C41.3575 34.6774 41.1382 34.9566 40.8826 35.1847C40.6044 35.433 40.2868 35.641 39.9274 35.7778C39.498 35.9413 39.0569 35.9951 38.6021 35.9948C36.917 35.9936 35.2321 35.9969 33.5469 35.9986C33.3543 35.9986 33.1613 36.0011 32.9687 35.9994C32.896 35.9986 32.8236 35.9886 32.7509 35.9828C32.7496 35.9717 32.7486 35.9606 32.7474 35.9493C32.8075 35.9254 32.8658 35.893 32.9282 35.8794C33.5135 35.7511 34.0067 35.4526 34.4272 35.0386C34.8364 34.6357 35.1149 34.1512 35.2819 33.5964C35.426 33.1175 35.4682 32.6343 35.467 32.1371C35.4597 29.4544 35.4635 26.7715 35.4635 24.0889C35.4635 23.8836 35.464 23.6781 35.4589 23.4729C35.4579 23.4359 35.431 23.3997 35.4162 23.3632C35.38 23.3791 35.3357 23.3861 35.309 23.4118C34.8865 23.818 34.4677 24.2282 34.0447 24.6342C33.4828 25.1734 32.9179 25.7094 32.355 26.2471C32.2642 26.3339 32.1764 26.4239 32.0859 26.5112C31.9815 26.6118 31.9483 26.6133 31.8477 26.5092C31.5715 26.2227 31.2984 25.9332 31.0227 25.6463C30.4659 25.0663 29.9082 24.487 29.3504 23.9078C29.0051 23.5491 28.6597 23.1902 28.3116 22.8341C28.2807 22.8024 28.2291 22.7911 28.1871 22.7704C28.1715 22.8144 28.1421 22.8582 28.1421 22.9022C28.1396 24.9729 28.1431 27.0437 28.1358 29.1144C28.1348 29.4288 28.0269 29.7296 27.9162 30.0226C27.7824 30.3773 27.592 30.7002 27.3312 30.9781C27.0483 31.2797 26.7216 31.5257 26.3606 31.7269C26.0505 31.8999 25.7457 32.0833 25.4295 32.2445C24.968 32.4797 24.5002 32.7033 24.0313 32.9238C23.7861 33.0393 23.5361 33.1462 23.2823 33.2423C22.9752 33.3585 22.6639 33.4638 22.3515 33.5645C22.0708 33.6547 21.7873 33.737 21.5026 33.8137C21.2896 33.8713 21.073 33.9166 20.8572 33.9634C20.702 33.9968 20.5458 34.0267 20.3892 34.0526C20.0891 34.1022 19.7885 34.1487 19.488 34.195C19.2083 34.2378 18.9284 34.281 18.6479 34.3185C18.5571 34.3306 18.4641 34.3275 18.372 34.3275C17.5131 34.3283 16.6542 34.3369 15.7955 34.3235C15.5181 34.3193 15.2416 34.2566 14.9647 34.2199C14.9149 34.2134 14.8654 34.2041 14.8161 34.1953C14.4152 34.1238 14.0137 34.0542 13.6131 33.9802C13.3711 33.9354 13.1289 33.8912 12.8902 33.8326C12.6767 33.7803 12.4684 33.7073 12.2572 33.6454C12.0889 33.5961 11.9154 33.5617 11.7521 33.4998C11.273 33.319 10.7956 33.1336 10.322 32.9387C9.9978 32.8054 9.67813 32.6598 9.36248 32.5071C9.14844 32.4037 8.94295 32.2817 8.73671 32.1628C8.48695 32.0189 8.23393 31.8796 7.99423 31.7198C7.61193 31.4648 7.23139 31.2055 6.86518 30.9283C6.47181 30.6308 6.08423 30.3232 5.714 29.9975C5.0339 29.3989 4.40385 28.7484 3.84071 28.0382C3.52657 27.642 3.22953 27.2313 2.94305 26.8148C2.67117 26.4194 2.41211 26.0142 2.16788 25.6012C1.99384 25.307 1.84645 24.9961 1.70082 24.6862C1.53935 24.3424 1.38617 23.994 1.24281 23.6422C1.12208 23.3456 1.01896 23.0418 0.911063 22.7405C0.820014 22.4865 0.72142 22.2344 0.647475 21.9754C0.55869 21.6638 0.489775 21.3463 0.417087 21.0304C0.358232 20.7752 0.300132 20.5194 0.253099 20.2616C0.209335 20.0206 0.178148 19.7771 0.146205 19.5342C0.102693 19.2029 0.0629536 18.8712 0.0227111 18.5397C0.0146627 18.4733 0.00611114 18.4064 0.00585963 18.3397C0.00460205 17.5769 -0.0094828 16.8138 0.0111414 16.0517C0.0217051 15.6656 0.0946445 15.2813 0.141426 14.8962C0.166075 14.6943 0.190472 14.4918 0.223672 14.2911C0.254357 14.1062 0.297366 13.9234 0.334338 13.7395C0.363263 13.5962 0.38766 13.452 0.420357 13.3097C0.457329 13.1485 0.500842 12.9885 0.542845 12.8285C0.595663 12.6278 0.646972 12.4266 0.704066 12.2269C0.750848 12.0637 0.801402 11.9012 0.856736 11.7407C0.936969 11.5088 1.01368 11.2749 1.10926 11.0491C1.32732 10.5337 1.54211 10.0158 1.78508 9.51205C1.98805 9.09102 2.21265 8.67828 2.45763 8.28038C2.70889 7.87192 2.98581 7.47805 3.27078 7.09197C3.57863 6.67471 3.88951 6.25669 4.23433 5.87062C4.64657 5.40934 5.08923 4.97472 5.5314 4.54111C6.12472 3.95935 6.79275 3.46739 7.46806 2.9875C7.79453 2.7556 8.13986 2.54659 8.49047 2.35217C8.99753 2.07123 9.50961 1.79682 10.0338 1.54984C10.4598 1.34938 10.9043 1.18665 11.3452 1.01989C11.6684 0.897658 11.9973 0.789003 12.3276 0.687643C12.5451 0.620991 12.7705 0.579994 12.9913 0.523655C13.2401 0.460273 13.4868 0.388591 13.7363 0.328479C13.8739 0.295279 14.0148 0.274906 14.1548 0.254785C14.3659 0.224603 14.5776 0.198445 14.7892 0.173545C15.1659 0.129027 15.543 0.0872758 15.9195 0.0417515C15.9446 0.0387333 15.9673 0.0145879 15.9912 0.00050303C16.7626 0.00050303 17.5337 0.00050303 18.3051 0.00050303L18.3064 0Z" fill="#FFA21A"/>
<path d="M44.9193 29.7641C44.9193 28.8085 44.9245 27.8528 44.9145 26.8975C44.9127 26.7212 44.9925 26.6478 45.1275 26.5726C45.503 26.3633 45.8821 26.1581 46.2397 25.9209C46.5659 25.7046 46.8738 25.4584 47.1746 25.2071C47.402 25.0172 47.6153 24.8082 47.8167 24.5909C48.0665 24.3215 48.3152 24.0479 48.5328 23.7526C48.7931 23.3995 49.0381 23.0322 49.2561 22.652C49.4551 22.3049 49.6241 21.9382 49.7783 21.5684C49.9141 21.243 50.0235 20.9047 50.1229 20.5656C50.2257 20.2145 50.3102 19.8574 50.3875 19.4995C50.428 19.3123 50.4508 19.1184 50.4551 18.9273C50.4672 18.3842 50.5595 17.8437 50.471 17.2972C50.4209 16.9888 50.4257 16.6717 50.3955 16.3595C50.3829 16.228 50.3437 16.0992 50.3173 15.9689C50.1782 15.2843 49.9654 14.6208 49.681 13.9852C49.3454 13.2352 48.9304 12.526 48.4133 11.8851C47.9976 11.37 47.5486 10.8815 47.0214 10.4753C46.6409 10.1821 46.2629 9.88152 45.8579 9.62548C45.4998 9.39912 45.1132 9.21249 44.7251 9.0402C44.3526 8.87471 43.968 8.72958 43.5774 8.61313C43.2163 8.50548 42.8407 8.44587 42.4708 8.36866C42.3209 8.33747 42.1669 8.32339 42.018 8.28868C41.5291 8.17499 41.0329 8.22555 40.5401 8.2268C40.1609 8.22781 39.778 8.24768 39.4033 8.30226C39.0172 8.35835 38.6372 8.46046 38.2576 8.55453C37.9983 8.61866 37.7378 8.68683 37.4895 8.78341C37.1404 8.91923 36.7966 9.0719 36.4608 9.2379C36.1653 9.38377 35.8738 9.54298 35.5984 9.72357C35.2739 9.93635 34.9547 10.162 34.6587 10.4122C34.3109 10.7065 33.9804 11.0234 33.6617 11.3494C33.458 11.5579 33.2764 11.7913 33.1071 12.0295C32.8382 12.4072 32.5855 12.7966 32.3314 13.1844C32.2605 13.2926 32.2105 13.2362 32.1556 13.1799C31.8875 12.904 31.6207 12.6273 31.3538 12.3504C30.973 11.9555 30.5909 11.5619 30.2129 11.1645C30.0024 10.9434 29.8022 10.7125 29.5912 10.4922C29.3482 10.2384 29.0982 9.99143 28.8512 9.74143C28.7423 9.63126 28.6286 9.52538 28.5278 9.40842C28.5031 9.37975 28.4993 9.30052 28.5212 9.26883C28.6752 9.04523 28.8256 8.81686 29.0014 8.61062C29.4164 8.12293 29.8256 7.6282 30.2733 7.1717C30.6709 6.76626 31.1103 6.4003 31.5447 6.03284C31.8475 5.77654 32.1642 5.53383 32.4914 5.30923C32.8148 5.08714 33.1549 4.88819 33.4957 4.69302C33.84 4.49608 34.1894 4.30669 34.5453 4.13188C34.8335 3.99028 35.1336 3.87232 35.4309 3.74958C35.6386 3.66382 35.8494 3.58509 36.0609 3.50913C36.244 3.44324 36.4291 3.38212 36.6152 3.32477C36.8255 3.25988 37.036 3.19323 37.2498 3.14242C37.606 3.05766 37.9646 2.98196 38.3233 2.90851C38.5393 2.86425 38.7571 2.82728 38.9755 2.79408C39.1734 2.76389 39.3724 2.73321 39.5718 2.71963C40.1108 2.68341 40.6508 2.62606 41.1898 2.63361C41.7786 2.64191 42.3671 2.70604 42.9544 2.76088C43.332 2.79609 43.7082 2.84991 44.0822 2.91229C44.3403 2.9553 44.5943 3.02497 44.8488 3.08759C45.0538 3.1379 45.2591 3.18946 45.4608 3.25183C45.7342 3.33609 46.0053 3.4289 46.2757 3.52221C46.5244 3.60798 46.7752 3.68997 47.0179 3.79033C47.3036 3.90854 47.5863 4.03581 47.862 4.17565C48.2534 4.37435 48.6447 4.57531 49.0225 4.79815C49.6138 5.1465 50.1694 5.54792 50.7097 5.97197C51.4506 6.55347 52.1295 7.19936 52.7391 7.91467C53.1131 8.35332 53.4565 8.81862 53.8033 9.27965C54.2115 9.82242 54.5342 10.4188 54.8498 11.0174C55.0116 11.3237 55.1534 11.6419 55.2867 11.9618C55.4552 12.3655 55.6155 12.7734 55.7611 13.1859C55.8564 13.4558 55.9213 13.7367 55.9965 14.0137C56.0629 14.2584 56.127 14.5039 56.1871 14.7501C56.2158 14.8676 56.2362 14.9873 56.2535 15.107C56.3081 15.487 56.368 15.8668 56.4097 16.2484C56.451 16.6262 56.4897 17.0057 56.499 17.3852C56.5111 17.8744 56.493 18.3644 56.487 18.8541C56.4857 18.9504 56.4862 19.0472 56.4759 19.1426C56.4392 19.4869 56.3999 19.8312 56.3579 20.175C56.334 20.37 56.3071 20.5644 56.2739 20.7578C56.2395 20.9585 56.1995 21.1587 56.155 21.3574C56.1067 21.5727 56.0551 21.7872 55.9963 21.9998C55.9344 22.2231 55.8637 22.4442 55.7945 22.6655C55.7324 22.864 55.6803 23.0667 55.6009 23.2581C55.3785 23.7941 55.159 24.3318 54.911 24.856C54.6267 25.4569 54.2819 26.0248 53.9122 26.5786C53.42 27.3161 52.8694 28.0067 52.2512 28.6388C51.8188 29.0809 51.3508 29.4894 50.8827 29.8943C50.3885 30.3219 49.8628 30.712 49.2966 31.0397C48.7763 31.3411 48.2481 31.63 47.7106 31.8994C47.331 32.0896 46.9357 32.2523 46.5375 32.4004C46.1441 32.5468 45.7382 32.6592 45.3378 32.787C45.2704 32.8086 45.2052 32.8398 45.1366 32.8559C44.9698 32.8947 44.9323 32.8632 44.9323 32.694C44.9323 32.2495 44.9323 31.8053 44.9323 31.3609C44.9323 30.8285 44.9323 30.2963 44.9323 29.7638C44.9281 29.7638 44.9238 29.7638 44.9195 29.7638L44.9193 29.7641Z" fill="#FFA21A"/>
</svg>
